G04*
G04 #@! TF.GenerationSoftware,Altium Limited,Altium Designer,25.5.2 (35)*
G04*
G04 Layer_Physical_Order=2*
G04 Layer_Color=16711680*
%FSLAX25Y25*%
%MOIN*%
G70*
G04*
G04 #@! TF.SameCoordinates,B2316909-82D1-4C6C-8CF9-3FEF708230A5*
G04*
G04*
G04 #@! TF.FilePolarity,Positive*
G04*
G01*
G75*
%ADD24C,0.01500*%
%ADD25R,0.06000X0.06000*%
%ADD26C,0.06000*%
%ADD27C,0.14000*%
%ADD28R,0.06024X0.06024*%
%ADD29C,0.06024*%
%ADD30C,0.02756*%
D24*
X240000Y160000D02*
Y207768D01*
X265000Y232768D01*
Y265000D01*
Y280000D01*
X260000Y285000D02*
X265000Y280000D01*
X237372Y152628D02*
X240000Y150000D01*
X237372Y152628D02*
Y220472D01*
X240000Y223100D01*
Y285000D01*
D25*
X260000Y220000D02*
D03*
X360000D02*
D03*
D26*
X270000D02*
D03*
X260000Y210000D02*
D03*
X270000D02*
D03*
X260000Y200000D02*
D03*
X270000D02*
D03*
X260000Y190000D02*
D03*
X270000D02*
D03*
X260000Y180000D02*
D03*
X270000D02*
D03*
X260000Y170000D02*
D03*
X270000D02*
D03*
X260000Y160000D02*
D03*
X270000D02*
D03*
X260000Y150000D02*
D03*
X270000D02*
D03*
X260000Y140000D02*
D03*
X270000D02*
D03*
X260000Y130000D02*
D03*
X270000D02*
D03*
X260000Y120000D02*
D03*
X270000D02*
D03*
X260000Y110000D02*
D03*
X270000D02*
D03*
X260000Y100000D02*
D03*
X270000D02*
D03*
X260000Y90000D02*
D03*
X270000D02*
D03*
X260000Y80000D02*
D03*
X270000D02*
D03*
X260000Y70000D02*
D03*
X270000D02*
D03*
X260000Y60000D02*
D03*
X270000D02*
D03*
X260000Y50000D02*
D03*
X270000D02*
D03*
X370000Y220000D02*
D03*
X360000Y210000D02*
D03*
X370000D02*
D03*
X360000Y200000D02*
D03*
X370000D02*
D03*
X360000Y190000D02*
D03*
X370000D02*
D03*
X360000Y180000D02*
D03*
X370000D02*
D03*
X360000Y170000D02*
D03*
X370000D02*
D03*
X360000Y160000D02*
D03*
X370000D02*
D03*
X360000Y150000D02*
D03*
X370000D02*
D03*
X360000Y140000D02*
D03*
X370000D02*
D03*
X360000Y130000D02*
D03*
X370000D02*
D03*
X360000Y120000D02*
D03*
X370000D02*
D03*
X360000Y110000D02*
D03*
X370000D02*
D03*
X360000Y100000D02*
D03*
X370000D02*
D03*
X360000Y90000D02*
D03*
X370000D02*
D03*
X360000Y80000D02*
D03*
X370000D02*
D03*
X360000Y70000D02*
D03*
X370000D02*
D03*
X360000Y60000D02*
D03*
X370000D02*
D03*
X360000Y50000D02*
D03*
X370000D02*
D03*
D27*
X26500Y37500D02*
D03*
X213500D02*
D03*
X26500Y262500D02*
D03*
X213500D02*
D03*
D28*
X25000Y55000D02*
D03*
D29*
Y145000D02*
D03*
Y135000D02*
D03*
Y125000D02*
D03*
Y115000D02*
D03*
Y105000D02*
D03*
Y95000D02*
D03*
Y85000D02*
D03*
Y75000D02*
D03*
Y65000D02*
D03*
Y155000D02*
D03*
Y165000D02*
D03*
Y175000D02*
D03*
Y185000D02*
D03*
Y195000D02*
D03*
Y205000D02*
D03*
Y215000D02*
D03*
Y225000D02*
D03*
Y235000D02*
D03*
Y245000D02*
D03*
X215000Y55000D02*
D03*
Y65000D02*
D03*
Y75000D02*
D03*
Y85000D02*
D03*
Y95000D02*
D03*
Y105000D02*
D03*
Y115000D02*
D03*
Y125000D02*
D03*
Y135000D02*
D03*
Y145000D02*
D03*
Y155000D02*
D03*
Y165000D02*
D03*
Y175000D02*
D03*
Y185000D02*
D03*
Y195000D02*
D03*
Y205000D02*
D03*
Y215000D02*
D03*
Y225000D02*
D03*
Y235000D02*
D03*
Y245000D02*
D03*
D30*
X240000Y285000D02*
D03*
X260000D02*
D03*
X265000Y265000D02*
D03*
X240000Y160000D02*
D03*
Y150000D02*
D03*
M02*
