M48
;Layer_Color=9474304
;FILE_FORMAT=2:5
INCH,LZ
;TYPE=PLATED
T01F00S00C0.01181
T02F00S00C0.03500
T03F00S00C0.04016
T04F00S00C0.10000
%
T01
X024Y015
Y016
Y0285
X026
X0265Y0265
T02
X026Y005
Y006
Y007
Y008
Y009
Y01
Y011
Y012
Y013
Y014
Y015
X027
Y014
Y013
Y012
Y011
Y01
Y009
Y008
Y007
Y006
Y005
X036
Y006
Y007
Y008
Y009
Y01
Y011
Y012
Y013
Y014
Y015
X037
Y014
Y013
Y012
Y011
Y01
Y009
Y008
Y007
Y006
Y005
Y016
Y017
Y018
Y019
Y02
Y021
Y022
X036
Y021
Y02
Y019
Y018
Y017
Y016
X027
Y017
Y018
Y019
Y02
Y021
Y022
X026
Y021
Y02
Y019
Y018
Y017
Y016
T03
X0025Y0055
Y0065
Y0075
Y0085
Y0095
Y0105
Y0115
Y0125
Y0135
Y0145
Y0155
X0215
Y0145
Y0135
Y0125
Y0115
Y0105
Y0095
Y0085
Y0075
Y0065
Y0055
Y0165
Y0175
Y0185
Y0195
Y0205
Y0215
Y0225
Y0235
Y0245
X0025
Y0235
Y0225
Y0215
Y0205
Y0195
Y0185
Y0175
Y0165
T04
X00265Y00375
X02135
Y02625
X00265
M30
