G04*
G04 #@! TF.GenerationSoftware,Altium Limited,Altium Designer,25.5.2 (35)*
G04*
G04 Layer_Color=65535*
%FSLAX25Y25*%
%MOIN*%
G70*
G04*
G04 #@! TF.SameCoordinates,B2316909-82D1-4C6C-8CF9-3FEF708230A5*
G04*
G04*
G04 #@! TF.FilePolarity,Positive*
G04*
G01*
G75*
%ADD10C,0.01000*%
%ADD11C,0.00500*%
G36*
X248477Y8874D02*
X248245D01*
Y8642D01*
X248013D01*
Y8411D01*
X247781D01*
Y8179D01*
X247318D01*
Y7947D01*
X247086D01*
Y7715D01*
X246854D01*
Y7483D01*
X246622D01*
Y7715D01*
X246159D01*
Y8179D01*
X245927D01*
Y8411D01*
X245695D01*
Y8642D01*
X245464D01*
Y9106D01*
X245000D01*
Y9801D01*
X244768D01*
Y12351D01*
X245000D01*
Y12583D01*
X244768D01*
Y13046D01*
X244536D01*
Y13278D01*
X244305D01*
Y13510D01*
X244073D01*
Y13742D01*
X243841D01*
Y14205D01*
X243609D01*
Y14437D01*
X243377D01*
Y14669D01*
X243146D01*
Y14901D01*
X242914D01*
Y15133D01*
X242682D01*
Y15596D01*
X242450D01*
Y15828D01*
X242219D01*
Y16060D01*
X241987D01*
Y16291D01*
X241755D01*
Y16755D01*
X241523D01*
Y16987D01*
X241291D01*
Y17219D01*
X241060D01*
Y17450D01*
X240828D01*
Y17682D01*
X240596D01*
Y18146D01*
X240364D01*
Y18377D01*
X239901D01*
Y18146D01*
X239669D01*
Y17914D01*
X239437D01*
Y17682D01*
X239205D01*
Y17450D01*
X238973D01*
Y17219D01*
X238742D01*
Y16755D01*
X238510D01*
Y16523D01*
X238278D01*
Y16291D01*
X238046D01*
Y16060D01*
X237815D01*
Y15596D01*
X237583D01*
Y15364D01*
X237351D01*
Y15133D01*
X237119D01*
Y14901D01*
X236887D01*
Y14669D01*
X236656D01*
Y14205D01*
X236424D01*
Y13973D01*
X236192D01*
Y13742D01*
X235960D01*
Y13510D01*
X235729D01*
Y13046D01*
X235497D01*
Y12815D01*
X235265D01*
Y9338D01*
X235033D01*
Y9106D01*
X234801D01*
Y8874D01*
X234570D01*
Y8642D01*
X234338D01*
Y8411D01*
X233874D01*
Y8179D01*
X233642D01*
Y7947D01*
X233411D01*
Y7715D01*
X233179D01*
Y7483D01*
X232715D01*
Y7947D01*
X232252D01*
Y8411D01*
X232020D01*
Y8642D01*
X231788D01*
Y8874D01*
X231556D01*
Y9106D01*
X231325D01*
Y9338D01*
X231093D01*
Y31358D01*
X235265D01*
Y20000D01*
X235729D01*
Y20232D01*
X235960D01*
Y20464D01*
X236192D01*
Y20695D01*
X236424D01*
Y20927D01*
X236656D01*
Y21391D01*
X236887D01*
Y21622D01*
X237119D01*
Y21854D01*
X237351D01*
Y22086D01*
X237583D01*
Y22318D01*
X237815D01*
Y22782D01*
X238046D01*
Y23013D01*
X238278D01*
Y23245D01*
X238510D01*
Y23477D01*
X238742D01*
Y23940D01*
X238973D01*
Y24172D01*
X239205D01*
Y24404D01*
X239437D01*
Y24636D01*
X239669D01*
Y24868D01*
X239901D01*
Y25099D01*
X240364D01*
Y24868D01*
X240596D01*
Y24636D01*
X240828D01*
Y24404D01*
X241060D01*
Y23940D01*
X241291D01*
Y23709D01*
X241523D01*
Y23477D01*
X241755D01*
Y23013D01*
X241987D01*
Y22782D01*
X242219D01*
Y22550D01*
X242450D01*
Y22318D01*
X242682D01*
Y22086D01*
X242914D01*
Y21854D01*
X243146D01*
Y21391D01*
X243377D01*
Y21159D01*
X243609D01*
Y20927D01*
X243841D01*
Y20464D01*
X244073D01*
Y20232D01*
X244305D01*
Y20000D01*
X244536D01*
Y19768D01*
X244768D01*
Y20000D01*
X245000D01*
Y20464D01*
X244768D01*
Y31358D01*
X248940D01*
Y9106D01*
X248709D01*
Y8874D01*
X248477D01*
D02*
G37*
G36*
X263775Y17450D02*
Y17219D01*
X264007D01*
Y16987D01*
X264238D01*
Y16755D01*
X264470D01*
Y16291D01*
X264702D01*
Y16060D01*
X264934D01*
Y15828D01*
X265166D01*
Y15364D01*
X265397D01*
Y9338D01*
X264934D01*
Y9106D01*
X252881D01*
Y9338D01*
X252649D01*
Y9106D01*
X251954D01*
Y9338D01*
X251722D01*
Y31358D01*
X255894D01*
Y13742D01*
X256126D01*
Y13510D01*
X260993D01*
Y14205D01*
X260762D01*
Y14437D01*
X260530D01*
Y14669D01*
X260298D01*
Y14901D01*
X260066D01*
Y15364D01*
X259834D01*
Y15596D01*
X259603D01*
Y15828D01*
X259371D01*
Y16291D01*
X258907D01*
Y16755D01*
X258676D01*
Y16987D01*
X258444D01*
Y17219D01*
X258212D01*
Y17682D01*
X257980D01*
Y23940D01*
X258212D01*
Y23709D01*
X258676D01*
Y23477D01*
X258907D01*
Y23013D01*
X259139D01*
Y22782D01*
X259371D01*
Y22550D01*
X259603D01*
Y22318D01*
X259834D01*
Y22086D01*
X260066D01*
Y21622D01*
X260298D01*
Y21391D01*
X260530D01*
Y21159D01*
X260762D01*
Y20927D01*
X260993D01*
Y20695D01*
X261225D01*
Y20232D01*
X261457D01*
Y20000D01*
X261689D01*
Y19768D01*
X261920D01*
Y19536D01*
X262152D01*
Y19073D01*
X262384D01*
Y18841D01*
X262616D01*
Y18609D01*
X262848D01*
Y18377D01*
X263080D01*
Y18146D01*
X263311D01*
Y17682D01*
X263543D01*
Y17450D01*
X263775D01*
D02*
G37*
D10*
X383398Y204398D02*
G03*
X344028Y243768I-39370J0D01*
G01*
X284972D02*
G03*
X245602Y204398I0J-39370D01*
G01*
Y66602D02*
G03*
X284972Y27232I39370J0D01*
G01*
X344028D02*
G03*
X383398Y66602I0J39370D01*
G01*
Y204398D01*
X284972Y243768D02*
X344028D01*
X245602Y66602D02*
Y204398D01*
X284972Y27232D02*
X344028D01*
X246001Y237999D02*
Y233001D01*
X247001Y232001D01*
X249000D01*
X250000Y233001D01*
Y237999D01*
X251999Y232001D02*
X253999D01*
X252999D01*
Y237999D01*
X251999Y236999D01*
X343602Y158268D02*
X348601D01*
Y155769D01*
X347768Y154936D01*
X346101D01*
X345269Y155769D01*
Y158268D01*
X343602Y152436D02*
Y150770D01*
X344435Y149937D01*
X346101D01*
X346935Y150770D01*
Y152436D01*
X346101Y153269D01*
X344435D01*
X343602Y152436D01*
X346935Y144939D02*
Y147438D01*
X346101Y148271D01*
X344435D01*
X343602Y147438D01*
Y144939D01*
Y140773D02*
Y142439D01*
X344435Y143273D01*
X346101D01*
X346935Y142439D01*
Y140773D01*
X346101Y139940D01*
X345269D01*
Y143273D01*
X343602Y138274D02*
X348601D01*
X345269D02*
X346935Y135775D01*
X345269Y138274D02*
X343602Y135775D01*
X347768Y132443D02*
X346935D01*
Y133276D01*
Y131610D01*
Y132443D01*
X344435D01*
X343602Y131610D01*
X348601Y129111D02*
X343602D01*
Y126611D01*
X344435Y125778D01*
X345269D01*
X346101Y126611D01*
Y129111D01*
Y126611D01*
X346935Y125778D01*
X347768D01*
X348601Y126611D01*
Y129111D01*
X343602Y121613D02*
Y123279D01*
X344435Y124112D01*
X346101D01*
X346935Y123279D01*
Y121613D01*
X346101Y120780D01*
X345269D01*
Y124112D01*
X346935Y118281D02*
Y116615D01*
X346101Y115781D01*
X343602D01*
Y118281D01*
X344435Y119114D01*
X345269Y118281D01*
Y115781D01*
X341936Y112449D02*
Y111616D01*
X342769Y110783D01*
X346935D01*
Y113282D01*
X346101Y114115D01*
X344435D01*
X343602Y113282D01*
Y110783D01*
Y109117D02*
Y107451D01*
Y108284D01*
X348601D01*
Y109117D01*
X343602Y102453D02*
Y104119D01*
X344435Y104952D01*
X346101D01*
X346935Y104119D01*
Y102453D01*
X346101Y101619D01*
X345269D01*
Y104952D01*
X10400Y282098D02*
Y277100D01*
X11400Y276100D01*
X13399D01*
X14399Y277100D01*
Y282098D01*
X20397Y276100D02*
X16398D01*
X20397Y280099D01*
Y281098D01*
X19397Y282098D01*
X17398D01*
X16398Y281098D01*
X11260Y60563D02*
X10472Y59775D01*
Y58200D01*
X11260Y57412D01*
X14411D01*
X15198Y58200D01*
Y59775D01*
X14411Y60563D01*
X12835D01*
Y58988D01*
X15198Y62139D02*
X10472D01*
X15198Y65289D01*
X10472D01*
Y66865D02*
X15198D01*
Y69228D01*
X14411Y70016D01*
X11260D01*
X10472Y69228D01*
Y66865D01*
X243300Y291698D02*
Y286700D01*
X244300Y285700D01*
X246299D01*
X247299Y286700D01*
Y291698D01*
X249298Y290698D02*
X250298Y291698D01*
X252297D01*
X253297Y290698D01*
Y289699D01*
X252297Y288699D01*
X251297D01*
X252297D01*
X253297Y287699D01*
Y286700D01*
X252297Y285700D01*
X250298D01*
X249298Y286700D01*
D11*
X16500Y27000D02*
Y272000D01*
Y27000D02*
X223500D01*
X16500Y272000D02*
X223500D01*
Y27000D02*
Y272000D01*
M02*
