G04*
G04 #@! TF.GenerationSoftware,Altium Limited,Altium Designer,25.5.2 (35)*
G04*
G04 Layer_Color=2752767*
%FSLAX25Y25*%
%MOIN*%
G70*
G04*
G04 #@! TF.SameCoordinates,96831C8F-D5BA-46BF-BE3C-FBE6A9700D28*
G04*
G04*
G04 #@! TF.FilePolarity,Positive*
G04*
G01*
G75*
%ADD11C,0.00500*%
%ADD31C,0.00667*%
D11*
X258000Y218000D02*
Y222000D01*
X262000D01*
Y218000D01*
X258000D01*
X268000D02*
Y222000D01*
X272000D01*
Y218000D01*
X268000D01*
X258000Y208000D02*
Y212000D01*
X262000D01*
Y208000D01*
X258000D01*
X268000D02*
Y212000D01*
X272000D01*
Y208000D01*
X268000D01*
X258000Y198000D02*
Y202000D01*
X262000D01*
Y198000D01*
X258000D01*
X268000D02*
Y202000D01*
X272000D01*
Y198000D01*
X268000D01*
X258000Y188000D02*
Y192000D01*
X262000D01*
Y188000D01*
X258000D01*
X268000D02*
Y192000D01*
X272000D01*
Y188000D01*
X268000D01*
X258000Y178000D02*
Y182000D01*
X262000D01*
Y178000D01*
X258000D01*
X268000D02*
Y182000D01*
X272000D01*
Y178000D01*
X268000D01*
X258000Y168000D02*
Y172000D01*
X262000D01*
Y168000D01*
X258000D01*
X268000D02*
Y172000D01*
X272000D01*
Y168000D01*
X268000D01*
X258000Y158000D02*
Y162000D01*
X262000D01*
Y158000D01*
X258000D01*
X268000D02*
Y162000D01*
X272000D01*
Y158000D01*
X268000D01*
X258000Y148000D02*
Y152000D01*
X262000D01*
Y148000D01*
X258000D01*
X268000D02*
Y152000D01*
X272000D01*
Y148000D01*
X268000D01*
X258000Y138000D02*
Y142000D01*
X262000D01*
Y138000D01*
X258000D01*
X268000D02*
Y142000D01*
X272000D01*
Y138000D01*
X268000D01*
X258000Y128000D02*
Y132000D01*
X262000D01*
Y128000D01*
X258000D01*
X268000D02*
Y132000D01*
X272000D01*
Y128000D01*
X268000D01*
X258000Y118000D02*
Y122000D01*
X262000D01*
Y118000D01*
X258000D01*
X268000D02*
Y122000D01*
X272000D01*
Y118000D01*
X268000D01*
X258000Y108000D02*
Y112000D01*
X262000D01*
Y108000D01*
X258000D01*
X268000D02*
Y112000D01*
X272000D01*
Y108000D01*
X268000D01*
X258000Y98000D02*
Y102000D01*
X262000D01*
Y98000D01*
X258000D01*
X268000D02*
Y102000D01*
X272000D01*
Y98000D01*
X268000D01*
X258000Y88000D02*
Y92000D01*
X262000D01*
Y88000D01*
X258000D01*
X268000D02*
Y92000D01*
X272000D01*
Y88000D01*
X268000D01*
X258000Y78000D02*
Y82000D01*
X262000D01*
Y78000D01*
X258000D01*
X268000D02*
Y82000D01*
X272000D01*
Y78000D01*
X268000D01*
X258000Y68000D02*
Y72000D01*
X262000D01*
Y68000D01*
X258000D01*
X268000D02*
Y72000D01*
X272000D01*
Y68000D01*
X268000D01*
X258000Y58000D02*
Y62000D01*
X262000D01*
Y58000D01*
X258000D01*
X268000D02*
Y62000D01*
X272000D01*
Y58000D01*
X268000D01*
X258000Y48000D02*
Y52000D01*
X262000D01*
Y48000D01*
X258000D01*
X268000D02*
Y52000D01*
X272000D01*
Y48000D01*
X268000D01*
X358000Y218000D02*
Y222000D01*
X362000D01*
Y218000D01*
X358000D01*
X368000D02*
Y222000D01*
X372000D01*
Y218000D01*
X368000D01*
X358000Y208000D02*
Y212000D01*
X362000D01*
Y208000D01*
X358000D01*
X368000D02*
Y212000D01*
X372000D01*
Y208000D01*
X368000D01*
X358000Y198000D02*
Y202000D01*
X362000D01*
Y198000D01*
X358000D01*
X368000D02*
Y202000D01*
X372000D01*
Y198000D01*
X368000D01*
X358000Y188000D02*
Y192000D01*
X362000D01*
Y188000D01*
X358000D01*
X368000D02*
Y192000D01*
X372000D01*
Y188000D01*
X368000D01*
X358000Y178000D02*
Y182000D01*
X362000D01*
Y178000D01*
X358000D01*
X368000D02*
Y182000D01*
X372000D01*
Y178000D01*
X368000D01*
X358000Y168000D02*
Y172000D01*
X362000D01*
Y168000D01*
X358000D01*
X368000D02*
Y172000D01*
X372000D01*
Y168000D01*
X368000D01*
X358000Y158000D02*
Y162000D01*
X362000D01*
Y158000D01*
X358000D01*
X368000D02*
Y162000D01*
X372000D01*
Y158000D01*
X368000D01*
X358000Y148000D02*
Y152000D01*
X362000D01*
Y148000D01*
X358000D01*
X368000D02*
Y152000D01*
X372000D01*
Y148000D01*
X368000D01*
X358000Y138000D02*
Y142000D01*
X362000D01*
Y138000D01*
X358000D01*
X368000D02*
Y142000D01*
X372000D01*
Y138000D01*
X368000D01*
X358000Y128000D02*
Y132000D01*
X362000D01*
Y128000D01*
X358000D01*
X368000D02*
Y132000D01*
X372000D01*
Y128000D01*
X368000D01*
X358000Y118000D02*
Y122000D01*
X362000D01*
Y118000D01*
X358000D01*
X368000D02*
Y122000D01*
X372000D01*
Y118000D01*
X368000D01*
X358000Y108000D02*
Y112000D01*
X362000D01*
Y108000D01*
X358000D01*
X368000D02*
Y112000D01*
X372000D01*
Y108000D01*
X368000D01*
X358000Y98000D02*
Y102000D01*
X362000D01*
Y98000D01*
X358000D01*
X368000D02*
Y102000D01*
X372000D01*
Y98000D01*
X368000D01*
X358000Y88000D02*
Y92000D01*
X362000D01*
Y88000D01*
X358000D01*
X368000D02*
Y92000D01*
X372000D01*
Y88000D01*
X368000D01*
X358000Y78000D02*
Y82000D01*
X362000D01*
Y78000D01*
X358000D01*
X368000D02*
Y82000D01*
X372000D01*
Y78000D01*
X368000D01*
X358000Y68000D02*
Y72000D01*
X362000D01*
Y68000D01*
X358000D01*
X368000D02*
Y72000D01*
X372000D01*
Y68000D01*
X368000D01*
X358000Y58000D02*
Y62000D01*
X362000D01*
Y58000D01*
X358000D01*
X368000D02*
Y62000D01*
X372000D01*
Y58000D01*
X368000D01*
X358000Y48000D02*
Y52000D01*
X362000D01*
Y48000D01*
X358000D01*
X368000D02*
Y52000D01*
X372000D01*
Y48000D01*
X368000D01*
X26500Y35500D02*
X24500Y39500D01*
X28500D01*
X26500Y35500D01*
X213500D02*
X211500Y39500D01*
X215500D01*
X213500Y35500D01*
X26500Y260500D02*
X24500Y264500D01*
X28500D01*
X26500Y260500D01*
X213500D02*
X211500Y264500D01*
X215500D01*
X213500Y260500D01*
X240000Y283000D02*
X241000Y284000D01*
X242000D01*
X241000Y285000D01*
X242000Y286000D01*
X241000D01*
X240000Y287000D01*
X239000Y286000D01*
X238000D01*
X239000Y285000D01*
X238000Y284000D01*
X239000D01*
X240000Y283000D01*
X260000D02*
X261000Y284000D01*
X262000D01*
X261000Y285000D01*
X262000Y286000D01*
X261000D01*
X260000Y287000D01*
X259000Y286000D01*
X258000D01*
X259000Y285000D01*
X258000Y284000D01*
X259000D01*
X260000Y283000D01*
X265000Y263000D02*
X266000Y264000D01*
X267000D01*
X266000Y265000D01*
X267000Y266000D01*
X266000D01*
X265000Y267000D01*
X264000Y266000D01*
X263000D01*
X264000Y265000D01*
X263000Y264000D01*
X264000D01*
X265000Y263000D01*
X240000Y158000D02*
X241000Y159000D01*
X242000D01*
X241000Y160000D01*
X242000Y161000D01*
X241000D01*
X240000Y162000D01*
X239000Y161000D01*
X238000D01*
X239000Y160000D01*
X238000Y159000D01*
X239000D01*
X240000Y158000D01*
Y148000D02*
X241000Y149000D01*
X242000D01*
X241000Y150000D01*
X242000Y151000D01*
X241000D01*
X240000Y152000D01*
X239000Y151000D01*
X238000D01*
X239000Y150000D01*
X238000Y149000D01*
X239000D01*
X240000Y148000D01*
D31*
X27000Y55000D02*
G03*
X27000Y55000I-2000J0D01*
G01*
Y145000D02*
G03*
X27000Y145000I-2000J0D01*
G01*
Y135000D02*
G03*
X27000Y135000I-2000J0D01*
G01*
Y125000D02*
G03*
X27000Y125000I-2000J0D01*
G01*
Y115000D02*
G03*
X27000Y115000I-2000J0D01*
G01*
Y105000D02*
G03*
X27000Y105000I-2000J0D01*
G01*
Y95000D02*
G03*
X27000Y95000I-2000J0D01*
G01*
Y85000D02*
G03*
X27000Y85000I-2000J0D01*
G01*
Y75000D02*
G03*
X27000Y75000I-2000J0D01*
G01*
Y65000D02*
G03*
X27000Y65000I-2000J0D01*
G01*
Y155000D02*
G03*
X27000Y155000I-2000J0D01*
G01*
Y165000D02*
G03*
X27000Y165000I-2000J0D01*
G01*
Y175000D02*
G03*
X27000Y175000I-2000J0D01*
G01*
Y185000D02*
G03*
X27000Y185000I-2000J0D01*
G01*
Y195000D02*
G03*
X27000Y195000I-2000J0D01*
G01*
Y205000D02*
G03*
X27000Y205000I-2000J0D01*
G01*
Y215000D02*
G03*
X27000Y215000I-2000J0D01*
G01*
Y225000D02*
G03*
X27000Y225000I-2000J0D01*
G01*
Y235000D02*
G03*
X27000Y235000I-2000J0D01*
G01*
Y245000D02*
G03*
X27000Y245000I-2000J0D01*
G01*
X217000Y55000D02*
G03*
X217000Y55000I-2000J0D01*
G01*
Y65000D02*
G03*
X217000Y65000I-2000J0D01*
G01*
Y75000D02*
G03*
X217000Y75000I-2000J0D01*
G01*
Y85000D02*
G03*
X217000Y85000I-2000J0D01*
G01*
Y95000D02*
G03*
X217000Y95000I-2000J0D01*
G01*
Y105000D02*
G03*
X217000Y105000I-2000J0D01*
G01*
Y115000D02*
G03*
X217000Y115000I-2000J0D01*
G01*
Y125000D02*
G03*
X217000Y125000I-2000J0D01*
G01*
Y135000D02*
G03*
X217000Y135000I-2000J0D01*
G01*
Y145000D02*
G03*
X217000Y145000I-2000J0D01*
G01*
Y155000D02*
G03*
X217000Y155000I-2000J0D01*
G01*
Y165000D02*
G03*
X217000Y165000I-2000J0D01*
G01*
Y175000D02*
G03*
X217000Y175000I-2000J0D01*
G01*
Y185000D02*
G03*
X217000Y185000I-2000J0D01*
G01*
Y195000D02*
G03*
X217000Y195000I-2000J0D01*
G01*
Y205000D02*
G03*
X217000Y205000I-2000J0D01*
G01*
Y215000D02*
G03*
X217000Y215000I-2000J0D01*
G01*
Y225000D02*
G03*
X217000Y225000I-2000J0D01*
G01*
Y235000D02*
G03*
X217000Y235000I-2000J0D01*
G01*
Y245000D02*
G03*
X217000Y245000I-2000J0D01*
G01*
M02*
